<?xml version="1.0" encoding="UTF-8" standalone="no"?>
<svg
   width="128"
   height="128"
   viewBox="0 0 33.866666 33.866668"
   version="1.1"
   id="svg8"
   inkscape:version="1.1 (c68e22c387, 2021-05-23)"
   sodipodi:docname="confirmicon.svg"
   inkscape:export-filename="F:\Курсовой Проект\confirmicon.png"
   inkscape:export-xdpi="96"
   inkscape:export-ydpi="96"
   xmlns:inkscape="http://www.inkscape.org/namespaces/inkscape"
   xmlns:sodipodi="http://sodipodi.sourceforge.net/DTD/sodipodi-0.dtd"
   xmlns="http://www.w3.org/2000/svg"
   xmlns:svg="http://www.w3.org/2000/svg"
   xmlns:rdf="http://www.w3.org/1999/02/22-rdf-syntax-ns#"
   xmlns:cc="http://creativecommons.org/ns#"
   xmlns:dc="http://purl.org/dc/elements/1.1/">
  <defs
     id="defs2" />
  <sodipodi:namedview
     id="base"
     pagecolor="#ffffff"
     bordercolor="#666666"
     borderopacity="1.0"
     inkscape:pageopacity="0.0"
     inkscape:pageshadow="2"
     inkscape:zoom="2.8"
     inkscape:cx="128.21429"
     inkscape:cy="88.035714"
     inkscape:document-units="mm"
     inkscape:current-layer="layer2"
     inkscape:document-rotation="0"
     showgrid="false"
     units="px"
     inkscape:window-width="1920"
     inkscape:window-height="1027"
     inkscape:window-x="-8"
     inkscape:window-y="-8"
     inkscape:window-maximized="1"
     inkscape:pagecheckerboard="0" />
  <metadata
     id="metadata5">
    <rdf:RDF>
      <cc:Work
         rdf:about="">
        <dc:format>image/svg+xml</dc:format>
        <dc:type
           rdf:resource="http://purl.org/dc/dcmitype/StillImage" />
      </cc:Work>
    </rdf:RDF>
  </metadata>
  <g
     inkscape:label="Слой 1"
     inkscape:groupmode="layer"
     id="layer1">
    <rect
       style="fill:#e6e6e6;fill-opacity:1;stroke-width:1.65489"
       id="rect865"
       width="32.543751"
       height="30.956247"
       x="0.87879443"
       y="1.6158494" />
  </g>
  <g
     inkscape:groupmode="layer"
     id="layer2"
     inkscape:label="Слой 2">
    <path
       style="fill:#0a0a0a;stroke:none;stroke-width:0.264583"
       d="M 0.87879839,1.6158494 V 32.572097 H 33.422546 V 1.6158494 H 0.87879839 m 29.36874761,1.5875 V 30.455431 H 2.4662984 V 3.2033494 H 30.247546"
       id="path847"
       sodipodi:nodetypes="cccccccccc" />
    <path
       style="fill:#1a1a1a;stroke:none;stroke-width:0.0193048"
       d="m 16.188792,7.2411742 c -1.911507,0.250987 -3.824209,0.660148 -5.714229,1.038096 -0.34719,0.06943 -0.6952084,0.135198 -1.0424614,0.204638 -0.385483,0.07709 -0.725161,0.127305 -0.935719,0.505785 -0.183111,0.329146 -0.159905,0.867616 -0.185689,1.2355068 -0.06399,0.913042 -0.139918,1.845021 -0.07722,2.760591 0.153014,2.234417 0.325202,4.470225 1.319447,6.525031 0.7094434,1.466221 1.8023474,2.722946 2.9486674,3.861043 0.815553,0.809703 1.709501,1.528614 2.644743,2.195056 0.358992,0.255826 0.800764,0.640842 1.274118,0.579182 0.385035,-0.05018 0.755167,-0.37463 1.061766,-0.592869 0.753659,-0.536462 1.483288,-1.106631 2.162142,-1.735717 1.395739,-1.293425 2.6792,-2.765437 3.4984,-4.499744 0.900011,-1.905386 1.206532,-4.186772 1.231359,-6.274068 0.01187,-0.999005 0.003,-1.996389 -0.09332,-2.992248 -0.03486,-0.3603058 -0.0116,-0.8520198 -0.230865,-1.1582898 -0.231678,-0.323645 -0.604707,-0.36607 -0.969317,-0.429532 -0.309551,-0.05388 -0.618545,-0.118895 -0.926632,-0.180505 -1.328017,-0.265581 -2.664991,-0.484813 -3.996098,-0.733792 -0.429996,-0.08043 -0.861903,-0.152708 -1.293423,-0.224627 -0.211581,-0.03526 -0.461579,-0.111647 -0.675669,-0.08354 m 5.038848,3.9129178 c 0.09156,-0.0065 0.206563,0.133685 0.269978,0.18828 0.23355,0.20098 0.462447,0.407176 0.694975,0.609143 0.0677,0.05882 0.241194,0.176002 0.201117,0.281386 -0.08033,0.211273 -0.358161,0.42938 -0.507002,0.598451 -0.397584,0.451617 -0.795937,0.90254 -1.196688,1.351337 -1.409908,1.578942 -2.854178,3.131785 -4.24208,4.729685 -0.465633,0.536094 -0.943871,1.071726 -1.436531,1.582995 -0.114651,0.118975 -0.228105,0.242179 -0.336579,0.366791 -0.04123,0.04737 -0.09708,0.127797 -0.165558,0.134419 -0.07623,0.0074 -0.159361,-0.09174 -0.212354,-0.135963 -0.162932,-0.135984 -0.321676,-0.276716 -0.48262,-0.414977 -0.657735,-0.565032 -1.311609,-1.137768 -1.949788,-1.724654 -0.178839,-0.164477 -0.747154,-0.507157 -0.564183,-0.773854 0.188859,-0.275305 0.445806,-0.53509 0.680089,-0.772193 0.06564,-0.06643 0.171968,-0.220499 0.27019,-0.233259 0.110907,-0.0144 0.287971,0.194168 0.366793,0.260749 0.326927,0.276234 0.643545,0.56457 0.965241,0.846729 0.199264,0.174767 0.395363,0.35322 0.598449,0.523662 0.0578,0.0485 0.147895,0.157819 0.231659,0.115 0.162411,-0.08303 0.30322,-0.318183 0.426424,-0.451115 0.365652,-0.394592 0.722715,-0.79702 1.082614,-1.196899 1.196456,-1.329369 2.402487,-2.651421 3.581933,-3.9961 0.415055,-0.4732 0.837869,-0.93974 1.257111,-1.409252 l 0.328184,-0.366773 c 0.03621,-0.04027 0.07855,-0.109343 0.138626,-0.113588 z"
       id="path157" />
  </g>
</svg>
