<?xml version="1.0" encoding="UTF-8" standalone="no"?>
<svg
   width="128"
   height="128"
   viewBox="0 0 33.866666 33.866668"
   version="1.1"
   id="svg8"
   inkscape:version="1.1 (c68e22c387, 2021-05-23)"
   sodipodi:docname="selecticon.svg"
   inkscape:export-filename="F:\Курсовой Проект\selecticon.png"
   inkscape:export-xdpi="96"
   inkscape:export-ydpi="96"
   xmlns:inkscape="http://www.inkscape.org/namespaces/inkscape"
   xmlns:sodipodi="http://sodipodi.sourceforge.net/DTD/sodipodi-0.dtd"
   xmlns="http://www.w3.org/2000/svg"
   xmlns:svg="http://www.w3.org/2000/svg"
   xmlns:rdf="http://www.w3.org/1999/02/22-rdf-syntax-ns#"
   xmlns:cc="http://creativecommons.org/ns#"
   xmlns:dc="http://purl.org/dc/elements/1.1/">
  <defs
     id="defs2" />
  <sodipodi:namedview
     id="base"
     pagecolor="#ffffff"
     bordercolor="#666666"
     borderopacity="1.0"
     inkscape:pageopacity="0.0"
     inkscape:pageshadow="2"
     inkscape:zoom="3.959798"
     inkscape:cx="145.96704"
     inkscape:cy="66.543798"
     inkscape:document-units="mm"
     inkscape:current-layer="layer2"
     inkscape:document-rotation="0"
     showgrid="false"
     units="px"
     inkscape:window-width="1920"
     inkscape:window-height="1027"
     inkscape:window-x="-8"
     inkscape:window-y="-8"
     inkscape:window-maximized="1"
     inkscape:pagecheckerboard="0" />
  <metadata
     id="metadata5">
    <rdf:RDF>
      <cc:Work
         rdf:about="">
        <dc:format>image/svg+xml</dc:format>
        <dc:type
           rdf:resource="http://purl.org/dc/dcmitype/StillImage" />
      </cc:Work>
    </rdf:RDF>
  </metadata>
  <g
     inkscape:label="Слой 1"
     inkscape:groupmode="layer"
     id="layer1">
    <rect
       style="fill:#e6e6e6;fill-opacity:1;stroke-width:1.65489"
       id="rect865"
       width="32.543751"
       height="30.956247"
       x="0.87879443"
       y="1.6158494" />
  </g>
  <g
     inkscape:groupmode="layer"
     id="layer2"
     inkscape:label="Слой 2">
    <path
       style="fill:#0a0a0a;stroke:none;stroke-width:0.264583"
       d="M 0.87879839,1.6158494 V 32.572097 H 33.422546 V 1.6158494 H 0.87879839 m 29.36874761,1.5875 V 30.455431 H 2.4662984 V 3.2033494 H 30.247546"
       id="path847"
       sodipodi:nodetypes="cccccccccc" />
    <path
       style="fill:#020202;stroke:none;stroke-width:0.0244186"
       d="m 13.074531,15.855805 -0.30931,-0.95233 -0.14268,-0.34117 -0.35383,-0.0251 H 11.389644 7.9954545 V 8.5302143 h 6.0069865 v 3.2721007 0.85465 l 0.0251,0.35383 0.34117,0.14267 0.95233,0.30932 v -4.2244307 -1.09883 c 0,-0.20617 0.0163,-0.42714 -0.0975,-0.61047 -0.32282,-0.5198 -1.33453,-0.31744 -1.85594,-0.31744 H 8.6303885 c -0.491327,0 -1.376843,-0.17267 -1.757091,0.19762 -0.370504,0.36081 -0.196398,1.25563 -0.196398,1.73145 v 4.7616307 c 0,0.51015 -0.202041,1.52345 0.29312,1.84634 0.195618,0.12756 0.411772,0.10715 0.634787,0.10715 h 1.098838 4.3709365 m 10.475589,4.66396 1.61163,-1.61163 c 0.26333,-0.26333 0.5542,-0.51675 0.4453,-0.92791 -0.0934,-0.3526 -0.40692,-0.44303 -0.71391,-0.54534 -0.62021,-0.20675 -1.23558,-0.42816 -1.85581,-0.63488 -2.23785,-0.74597 -4.509289,-1.4565 -6.715129,-2.29191 -0.57745,-0.2187 -1.17231,-0.40232 -1.75814,-0.59765 -0.28008,-0.0934 -0.56158,-0.23083 -0.85465,-0.0972 -0.63154,0.28797 -0.27798,1.01325 -0.12209,1.48091 0.4555,1.36649 0.90376,2.73567 1.35931,4.10233 0.57218,1.71656 1.13705,3.435629 1.7093,5.152329 0.17181,0.51543 0.28477,1.55329 0.98488,1.56233 0.32631,0.004 0.51851,-0.22502 0.73256,-0.43907 0.35426,-0.35427 0.72054,-0.69615 1.07442,-1.05 0.13835,-0.13836 0.27581,-0.27769 0.41512,-0.41507 0.0487,-0.0481 0.11652,-0.13779 0.19534,-0.11709 0.175769,0.0462 0.385919,0.35644 0.512799,0.48332 l 1.3186,1.31861 c 0.24866,0.24865 0.47011,0.50966 0.85465,0.43719 0.35515,-0.067 0.61235,-0.43907 0.85466,-0.68138 l 1.73372,-1.73372 c 0.2552,-0.2552 0.59803,-0.52198 0.52209,-0.92791 -0.0618,-0.33073 -0.37014,-0.55618 -0.59535,-0.7814 -0.54441,-0.54441 -1.0805,-1.241929 -1.7093,-1.684879 m -8.497679,-5.05466 c 1.92836,0.62749 3.847,1.2968 5.762789,1.96189 0.95929,0.33302 1.94101,0.76392 2.93024,0.99277 -0.0891,0.19105 -0.29178,0.34061 -0.43954,0.48837 l -0.87907,0.87907 c -0.14715,0.14715 -0.3319,0.29139 -0.41282,0.48837 -0.17269,0.42039 0.16715,0.70665 0.43724,0.97675 l 1.8314,1.831389 v 0.0244 l -1.22093,1.22093 c -0.094,0.094 -0.29757,0.38565 -0.43954,0.38565 -0.17872,0 -0.4883,-0.43441 -0.61047,-0.55658 l -1.24534,-1.24535 c -0.22436,-0.22435 -0.43629,-0.47819 -0.781399,-0.46295 -0.30689,0.0135 -0.50832,0.28755 -0.70814,0.48737 -0.4221,0.4221 -0.85612,0.95121 -1.34303,1.29419 l -2.05929,-6.202329 -0.58605,-1.78256 z"
       id="path139" />
  </g>
</svg>
